<?xml version="1.0" standalone="no"?>
<!DOCTYPE svg PUBLIC "-//W3C//DTD SVG 20010904//EN"
 "http://www.w3.org/TR/2001/REC-SVG-20010904/DTD/svg10.dtd">
<svg version="1.0" xmlns="http://www.w3.org/2000/svg"
 width="700.000000pt" height="700.000000pt" viewBox="0 0 700.000000 700.000000"
 preserveAspectRatio="xMidYMid meet">
<metadata>
Created by potrace 1.11, written by Peter Selinger 2001-2013
</metadata>
<g transform="translate(0.000000,700.000000) scale(0.100000,-0.100000)"
fill="#000000" stroke="none">
<path d="M663 6853 c-15 -32 -39 -52 -77 -66 -4 -1 -10 -92 -12 -201 -2 -108
-7 -210 -10 -224 -17 -75 -16 -79 5 -85 11 -3 25 1 32 9 8 10 8 14 0 15 -6 1
-15 2 -21 3 -5 0 -10 6 -10 11 -1 14 36 18 59 6 15 -8 24 -6 43 8 13 11 19 23
14 28 -5 4 -11 2 -13 -4 -5 -15 -51 -17 -73 -3 -12 7 -11 13 10 36 25 26 25
26 3 20 -24 -8 -30 3 -12 21 8 8 8 13 0 17 -6 4 -11 18 -11 32 0 19 4 24 18
20 9 -2 28 -7 41 -11 17 -5 22 -4 19 6 -2 7 -15 16 -29 19 -35 8 -5 24 40 21
36 -2 89 -45 70 -57 -6 -3 -8 -12 -5 -20 6 -16 -4 -17 -63 -3 -64 14 -62 4 5
-27 47 -22 54 -28 37 -31 -21 -4 -21 -6 -9 -26 34 -54 -18 -106 -106 -107 -55
0 -58 -1 -58 -25 0 -16 6 -25 16 -25 13 0 14 3 5 14 -17 20 12 29 36 11 16
-12 24 -10 61 12 43 24 74 24 39 -1 -21 -16 -22 -26 -1 -26 28 0 12 -52 -23
-76 l-32 -21 32 -14 c28 -12 31 -19 33 -61 4 -59 -9 -64 -81 -36 -56 21 -65
34 -42 57 10 10 7 11 -15 6 -31 -8 -34 -1 -18 39 8 21 16 26 45 26 19 0 35 4
35 9 0 5 -13 7 -29 6 -19 -1 -32 3 -35 12 -8 20 -26 6 -26 -20 0 -12 -8 -35
-18 -52 -11 -18 -20 -55 -21 -90 -6 -98 -7 -389 -3 -407 2 -9 17 -21 33 -27
39 -14 39 -35 -1 -28 l-30 6 -1 -52 c-3 -273 -8 -408 -14 -437 -12 -55 -18
-236 -16 -500 2 -126 5 -131 72 -97 l52 27 15 -21 c8 -12 30 -28 49 -35 19 -8
36 -21 40 -29 3 -8 16 -15 29 -15 13 0 24 -4 24 -9 0 -5 10 -13 23 -16 39 -12
105 -46 118 -61 16 -20 106 -64 131 -64 10 0 39 -11 62 -25 47 -28 176 -152
176 -170 0 -15 38 -48 73 -63 42 -18 44 -39 7 -77 -47 -48 -82 -59 -114 -34
-14 11 -47 29 -73 41 -26 11 -61 31 -76 44 -16 13 -34 24 -41 24 -7 0 -21 9
-31 20 -10 11 -25 20 -34 20 -9 0 -25 7 -35 15 -11 8 -28 15 -37 15 -10 0 -19
5 -21 12 -6 17 -28 0 -28 -23 0 -10 -5 -19 -11 -19 -7 0 -8 -11 -4 -29 4 -17
2 -32 -5 -36 -15 -9 -50 23 -50 47 0 10 -4 18 -9 18 -5 0 -12 11 -15 25 -11
43 -87 55 -126 20 -9 -8 -24 -15 -33 -15 -8 0 -22 -6 -29 -13 -7 -7 -24 -17
-38 -23 -14 -6 -45 -28 -69 -48 -31 -26 -47 -34 -56 -26 -9 7 -21 -9 -47 -63
-20 -39 -39 -85 -43 -101 -3 -15 -13 -35 -20 -43 -30 -29 -22 -132 15 -208 16
-33 32 -76 35 -95 4 -19 7 -285 7 -591 l2 -556 -23 -44 c-12 -24 -40 -71 -62
-104 -21 -34 -42 -76 -45 -95 -4 -19 -11 -41 -16 -47 -13 -16 -12 -71 1 -106
12 -30 9 -247 -4 -369 -7 -57 -5 -68 7 -68 9 0 21 7 28 15 7 8 15 13 19 11 3
-2 15 0 26 4 16 6 13 8 -18 14 -39 7 -44 17 -28 59 6 15 20 26 38 30 33 7 78
42 64 51 -12 8 -57 -9 -53 -20 8 -21 -18 -13 -33 10 -22 34 -12 46 38 46 23 0
52 3 65 6 31 9 28 34 -4 34 -14 0 -23 -4 -19 -9 8 -14 -15 -25 -27 -13 -6 6
-24 8 -39 5 -25 -5 -29 -2 -29 16 0 11 5 22 10 22 6 1 15 3 20 4 6 1 22 3 36
4 35 1 21 18 -26 31 -22 6 -40 16 -40 23 0 18 63 77 81 77 8 0 20 -5 26 -11 8
-8 25 -9 50 -4 l38 8 -35 9 c-19 5 -42 16 -51 24 -21 19 -31 18 -52 -6 -14
-17 -21 -18 -37 -10 -25 14 -26 30 -1 30 10 0 25 8 32 17 12 15 12 16 -4 10
-12 -5 -17 -1 -17 13 0 12 -7 20 -17 20 -16 1 -15 3 4 19 20 16 20 20 6 34
-14 14 -13 17 11 38 18 16 24 29 20 44 -5 18 0 25 27 34 25 8 29 14 20 24 -8
11 -4 20 18 41 17 16 31 23 35 18 4 -6 2 -13 -4 -17 -5 -3 -10 -10 -10 -15 0
-5 19 -1 42 10 23 10 46 16 50 14 13 -9 9 -24 -7 -24 -23 0 -18 -16 11 -29 27
-12 30 -49 3 -42 -38 11 -129 13 -129 3 0 -20 34 -32 50 -18 12 11 22 10 58
-5 42 -18 56 -39 26 -39 -13 0 -14 -3 -4 -15 15 -18 15 -96 0 -124 -8 -15 -8
-21 0 -21 6 0 8 -4 5 -10 -3 -5 -15 -10 -27 -10 -16 0 -18 -3 -9 -14 9 -11 9
-15 -1 -19 -9 -3 -8 -9 6 -19 19 -15 19 -15 -1 -35 -19 -19 -19 -20 -2 -32 28
-17 23 -31 -12 -31 -27 0 -30 -2 -19 -16 11 -13 8 -20 -21 -46 -31 -29 -32
-32 -14 -38 18 -6 17 -8 -10 -23 -27 -14 -28 -16 -8 -17 12 0 25 5 28 10 3 6
23 10 43 10 33 0 34 -1 17 -14 -16 -12 -17 -16 -6 -29 16 -20 8 -33 -28 -51
-25 -14 -32 -13 -81 10 -51 23 -80 26 -80 6 0 -5 25 -14 55 -21 30 -7 55 -16
55 -20 0 -4 -23 -18 -50 -31 -60 -28 -83 -50 -45 -42 31 6 33 -15 2 -27 -29
-11 -75 -61 -57 -61 7 0 28 5 47 12 41 15 49 7 27 -28 l-18 -27 27 7 c15 3 42
15 60 26 l32 20 -30 0 -30 0 30 18 c40 25 63 52 44 52 -10 1 -10 3 2 10 10 6
29 6 51 -1 29 -7 35 -13 31 -29 -4 -15 -13 -19 -40 -17 -21 1 -38 -3 -40 -10
-3 -8 4 -13 16 -13 11 0 22 -4 26 -10 3 -5 13 -7 23 -4 9 3 -1 -11 -22 -30
-25 -23 -33 -36 -24 -36 19 0 28 -20 28 -60 0 -35 -18 -46 -80 -49 -25 -2 -61
-11 -80 -21 -19 -10 -44 -22 -55 -26 -16 -6 -13 -9 18 -13 50 -8 52 -25 3 -29
-32 -3 -43 1 -58 20 l-18 23 0 -28 c0 -16 6 -43 14 -60 8 -18 16 -40 20 -49
10 -31 47 -20 93 27 36 38 47 44 62 36 10 -6 21 -7 25 -4 15 15 3 32 -31 46
-32 13 -34 16 -14 16 38 1 110 48 117 76 7 29 12 30 40 7 43 -36 63 -114 34
-132 -9 -5 -9 -13 1 -28 17 -27 9 -34 -41 -38 -82 -6 -86 -11 -94 -100 -5 -60
5 -84 27 -66 9 8 58 14 121 16 59 2 110 6 113 10 15 14 -12 22 -88 25 -14 1
-34 8 -45 16 -17 13 -15 13 19 4 52 -14 70 -5 27 15 -33 14 -34 16 -12 22 24
7 29 20 10 26 -6 2 -9 12 -5 21 6 15 9 15 42 2 19 -9 35 -11 35 -6 0 5 12 11
26 14 20 4 24 1 18 -12 -3 -9 -8 -25 -10 -36 -2 -11 -6 -30 -10 -42 -5 -18 -1
-23 22 -28 16 -3 37 -11 48 -16 10 -6 41 -13 69 -15 28 -2 54 -10 58 -16 5 -8
14 -8 36 0 16 7 113 14 231 17 238 5 261 12 262 78 0 36 47 87 61 66 5 -8 9
-26 9 -41 0 -20 7 -28 30 -37 17 -5 30 -15 30 -20 0 -6 11 -13 25 -17 29 -7
29 -7 10 -43 -13 -26 -13 -30 8 -49 41 -38 171 -48 199 -15 10 13 4 14 -43 10
-65 -5 -92 2 -80 22 5 8 7 20 4 28 -8 20 21 16 52 -9 l27 -21 -6 21 c-10 29
16 29 55 1 39 -27 42 -28 348 -35 236 -6 263 -5 258 9 -4 12 -1 15 16 11 67
-13 168 -18 277 -15 35 1 48 6 59 23 12 19 11 23 -5 35 -12 9 -31 12 -49 9
-58 -12 -85 -11 -85 3 0 4 21 11 46 14 52 5 74 21 57 38 -9 9 -8 15 2 25 7 8
15 19 18 26 8 22 38 -1 64 -51 1 -1 12 4 25 13 26 18 61 21 88 6 15 -8 22 -5
34 12 9 12 16 34 15 48 l-1 25 -7 -24 c-3 -13 -15 -25 -26 -27 -10 -2 -30 -6
-44 -9 l-26 -7 21 24 c29 32 36 55 21 70 -7 7 -16 21 -20 31 -9 24 -53 40 -77
27 -23 -12 -30 -13 -30 -1 0 11 35 22 80 24 33 2 35 4 32 36 -1 20 3 38 10 42
25 15 -2 22 -52 12 -41 -8 -48 -8 -39 3 6 7 8 18 5 23 -4 6 5 6 26 0 41 -11
38 -12 38 6 0 9 9 15 23 15 22 1 22 1 2 16 -17 13 -18 16 -5 24 12 8 10 14
-15 40 -29 30 -33 31 -99 28 -44 -2 -70 1 -73 8 -2 6 8 11 24 11 15 1 37 1 48
1 11 0 39 0 63 0 64 -1 73 15 30 55 -30 28 -42 33 -68 29 -23 -3 -31 -1 -26 7
4 6 26 11 49 11 38 0 39 1 21 15 -10 8 -16 15 -11 16 4 1 12 3 17 4 6 1 19 3
30 4 12 0 20 7 19 14 -1 6 1 24 5 40 9 31 -6 57 -35 57 -12 0 -16 5 -13 15 5
11 -1 15 -22 15 -27 1 -28 2 -11 14 21 16 53 11 61 -10 6 -16 46 -19 46 -3 0
5 -4 8 -8 5 -4 -2 -14 -1 -21 4 -11 6 -9 10 7 19 23 12 28 65 8 90 -9 12 -7
13 8 8 14 -6 17 -4 12 8 -5 13 5 20 27 16 4 0 7 4 7 9 0 6 -31 10 -72 11 -98
1 -135 4 -188 17 -25 7 -83 12 -130 12 -47 0 -101 5 -120 11 -19 5 -165 12
-324 15 -261 4 -292 7 -327 24 -23 12 -58 20 -88 20 -53 0 -70 12 -51 35 8 10
9 15 2 15 -6 0 -14 -5 -17 -10 -4 -7 -14 -6 -28 2 -12 7 -30 13 -40 15 -10 2
-28 9 -40 15 l-22 13 25 3 c13 2 26 -1 28 -7 7 -21 37 -12 39 12 1 12 3 33 5
46 3 26 -9 36 -57 46 l-30 7 38 15 c20 8 37 20 37 25 0 6 -7 8 -15 4 -13 -4
-13 -2 -5 14 16 29 13 63 -5 56 -9 -3 -15 0 -15 8 0 8 7 16 15 20 17 6 21 71
4 81 -6 4 -8 13 -5 21 6 16 -6 18 -20 4 -8 -8 -15 -6 -24 4 -13 16 -14 15 35
31 8 2 15 9 15 16 0 10 -48 9 -100 -3 -8 -1 -15 4 -15 12 0 10 8 14 28 12 15
-2 27 1 27 8 0 13 -61 40 -91 40 -17 0 -19 3 -10 14 19 23 -17 25 -72 4 -50
-19 -107 -24 -107 -10 0 5 19 9 42 10 23 1 49 9 58 18 14 14 12 15 -15 14 -51
-3 -76 0 -71 8 2 4 31 6 63 5 60 -4 196 -60 219 -91 15 -20 44 -8 44 17 0 11
-7 24 -17 29 -14 9 -14 11 5 21 28 15 28 25 0 51 l-22 20 23 17 24 16 -29 15
c-28 15 -28 15 -7 25 28 12 37 35 21 55 -10 12 -10 16 0 19 20 7 14 21 -14 36
l-27 14 26 7 c33 8 29 37 -10 78 l-28 29 29 -3 c36 -4 46 19 14 31 l-23 9 27
10 c30 12 45 31 26 33 -32 4 -62 -1 -90 -16 -39 -19 -44 -19 -28 0 7 8 19 15
26 15 8 0 14 5 14 10 0 6 7 10 16 10 11 0 14 5 9 18 -5 14 -4 15 6 5 32 -31
70 -3 41 30 -14 16 -14 19 2 30 16 12 16 14 2 26 -13 11 -21 8 -53 -18 -37
-30 -67 -39 -77 -23 -2 4 4 8 14 9 22 2 70 32 70 43 0 5 16 18 35 30 36 22 38
40 4 40 -10 0 -19 5 -19 10 0 6 7 10 15 10 17 0 28 36 23 71 -2 13 -9 23 -16
22 -17 -4 -15 7 5 29 15 17 15 20 3 28 -12 7 -12 12 -2 22 17 17 15 48 -5 70
-15 17 -15 18 0 18 19 0 23 26 6 32 -8 3 -8 10 2 26 12 20 12 24 -1 32 -14 9
-30 7 -69 -8 -8 -3 -12 0 -9 8 2 7 22 15 43 17 22 1 51 6 65 9 23 6 24 7 5 14
-18 7 -18 8 7 15 36 9 46 1 45 -38 -1 -33 25 -101 42 -112 5 -3 7 -13 5 -23
-3 -9 5 -28 17 -41 21 -23 23 -23 29 -5 6 18 7 17 18 -3 7 -12 12 -39 12 -60
-1 -32 -6 -41 -32 -58 -18 -11 -36 -33 -40 -50 -12 -43 -16 -141 -7 -157 6 -9
9 -5 10 12 5 114 8 134 26 158 11 15 26 27 34 28 8 0 23 3 34 7 11 4 36 2 55
-3 35 -10 573 -15 619 -5 37 7 43 19 26 51 -8 16 -15 34 -15 41 0 7 -9 17 -20
23 -25 13 -25 25 -1 49 17 17 33 19 110 19 63 -1 94 -5 102 -14 31 -37 40 34
10 73 -11 13 -17 31 -14 39 3 8 0 14 -6 14 -6 0 -17 15 -25 34 -8 18 -18 36
-24 40 -14 8 9 -65 25 -82 7 -7 13 -21 13 -31 0 -9 5 -22 11 -28 18 -18 -5
-23 -35 -7 -39 20 -68 18 -89 -7 -10 -11 -21 -18 -25 -14 -4 4 7 19 24 34 l31
28 -28 10 c-22 9 -31 8 -40 -3 -6 -8 -20 -14 -30 -14 -16 0 -13 5 13 29 32 28
32 30 15 49 -18 20 -18 21 5 24 21 4 20 6 -13 21 -20 9 -58 19 -85 23 -27 3
-51 8 -53 10 -12 11 15 16 75 15 59 -1 65 0 54 14 -10 12 -10 19 -2 27 9 9 8
16 -4 30 -9 10 -18 32 -21 50 -2 18 -5 42 -7 53 -1 11 -20 30 -42 42 -38 22
-38 23 -11 23 20 0 27 5 27 19 0 10 -9 21 -20 24 -14 3 -18 10 -14 21 5 14 2
15 -21 6 -39 -15 -55 -12 -55 9 0 16 6 19 30 16 41 -5 48 13 10 27 -27 9 -30
12 -16 20 20 11 12 30 -9 21 -32 -12 -13 8 20 21 40 17 46 41 11 50 -13 3 -27
16 -30 28 -4 13 -30 38 -59 56 l-52 34 -17 -22 c-10 -13 -21 -34 -24 -49 -11
-51 -13 -54 -37 -46 -12 3 -33 9 -47 12 -20 5 -23 3 -12 -8 19 -20 14 -34 -6
-16 -12 11 -22 13 -32 7 -16 -10 -67 -14 -58 -5 3 3 16 8 28 10 31 6 35 12 21
29 -16 19 -6 36 19 36 26 0 33 15 15 30 -14 11 -14 15 1 31 10 11 14 22 11 26
-10 9 -74 5 -96 -7 -50 -26 -97 8 -104 75 l-4 40 -1 -46 c-1 -27 4 -53 13 -65
18 -24 19 -34 1 -34 -24 0 -83 -63 -97 -103 -16 -46 -46 -67 -56 -40 -3 10
-17 30 -31 46 -22 23 -23 27 -8 27 13 0 16 5 11 18 -15 36 -17 52 -6 52 6 0
11 -5 11 -12 0 -17 10 -4 15 20 2 12 0 24 -6 27 -18 12 -8 25 16 21 28 -5 43
9 19 18 -10 4 -14 12 -9 24 3 9 10 37 15 60 l8 44 -54 -4 c-30 -1 -54 -2 -54
-1 0 1 15 10 33 19 98 50 104 124 10 124 -54 0 -50 15 4 17 53 2 72 7 61 18
-4 4 -56 9 -158 15 l-35 2 30 7 c17 4 50 6 74 3 48 -4 97 5 86 16 -8 8 -13 9
-57 11 -25 1 -29 4 -18 11 8 5 25 10 37 10 12 0 26 8 32 17 7 14 4 20 -20 30
-16 7 -37 26 -47 43 -11 19 -25 30 -40 30 l-23 0 21 22 c11 12 18 23 17 25 -2
1 -21 5 -43 9 -60 9 -69 27 -10 19 40 -5 48 -3 43 9 -3 8 -1 17 6 20 12 5 -11
29 -49 52 -10 6 -14 15 -10 23 6 9 13 9 31 -3 27 -18 35 -12 35 26 0 25 -4 28
-32 29 -33 0 -33 0 -8 12 14 6 27 12 29 14 2 1 5 25 6 53 2 42 -2 53 -19 65
-11 8 -28 15 -38 15 -10 0 -18 5 -18 11 0 8 14 10 41 6 l41 -5 -6 46 c-3 30
-13 53 -26 64 l-20 17 22 3 c19 2 23 9 23 43 l0 40 -47 0 c-25 0 -50 4 -55 8
-4 5 1 8 12 7 52 -6 90 16 79 45 -8 19 -33 19 -58 0 -22 -17 -76 -20 -76 -5 0
6 3 10 8 11 4 1 19 2 33 3 14 2 37 10 50 19 13 10 33 17 45 17 29 0 35 9 21
31 -9 14 -24 19 -57 19 -40 1 -43 2 -27 14 9 7 28 11 41 9 26 -5 66 12 66 28
0 7 -10 9 -22 6 -18 -5 -28 1 -45 25 -26 37 -22 51 5 18 16 -20 21 -21 41 -11
13 7 20 15 17 18 -3 3 6 21 19 40 13 20 21 41 19 48 -3 7 -25 20 -50 30 -24 9
-46 21 -49 26 -4 5 3 6 17 0 13 -4 43 -8 68 -7 40 1 47 4 61 34 l17 33 22 -32
c13 -17 24 -42 26 -56 1 -13 8 -30 14 -38 9 -11 8 -24 -9 -58 -12 -24 -21 -61
-21 -83 0 -22 -5 -45 -10 -50 -6 -6 -13 -30 -16 -55 -4 -24 -10 -52 -15 -61
-12 -23 -21 -218 -10 -218 5 0 9 42 10 92 1 51 6 97 11 102 8 8 149 26 200 25
8 0 28 0 44 0 16 0 42 -10 58 -24 16 -14 35 -25 41 -26 7 -1 26 -2 44 -3 37
-2 46 -8 50 -38 5 -31 10 -33 32 -14 28 25 158 34 199 13 26 -12 34 -13 49 -2
13 10 22 10 31 3 21 -18 334 -17 340 0 3 10 -6 13 -34 12 -58 -4 -64 -2 -64
20 0 26 -10 25 -39 -5 -13 -14 -33 -25 -45 -24 l-21 0 21 9 c30 12 36 26 19
40 -29 24 -18 42 21 34 34 -6 35 -5 23 13 -15 24 -6 51 18 60 10 3 25 15 34
26 18 22 36 16 49 -17 7 -16 9 -17 9 -4 1 27 34 38 115 38 l76 0 0 52 c0 54
-6 62 -12 16 -2 -15 -7 -30 -10 -33 -8 -8 -79 33 -105 61 l-22 24 27 -7 c25
-6 26 -6 9 11 -9 10 -17 26 -17 37 0 11 -7 19 -17 20 -14 0 -13 2 5 9 12 5 22
18 22 28 0 10 6 24 13 31 17 17 -25 51 -65 51 -17 0 -27 4 -23 10 3 6 26 10
51 10 28 0 45 5 45 13 1 6 2 28 3 48 1 20 8 44 15 53 9 10 10 16 2 16 -6 0
-11 5 -11 10 0 6 7 10 15 10 9 0 15 9 15 25 0 19 -8 28 -34 39 -38 16 -57 37
-26 29 22 -6 29 22 8 30 -8 4 -9 6 -2 6 6 1 17 -6 24 -14 14 -17 40 -20 40 -5
0 6 -6 10 -14 10 -8 0 -17 7 -20 16 -5 13 -1 14 24 9 23 -5 30 -3 30 8 0 24
-30 41 -72 41 -37 0 -39 1 -22 13 13 10 32 12 60 8 l40 -6 1 35 c1 19 -5 41
-13 47 -13 10 -12 14 2 30 12 14 13 22 4 39 -6 12 -9 24 -6 28 8 8 -24 42 -41
42 -15 0 -17 16 -3 25 20 12 10 27 -16 22 l-25 -4 24 26 c14 14 23 31 20 38
-10 27 21 21 62 -13 59 -48 58 -29 -2 35 l-48 50 -130 6 c-146 6 -256 15 -266
21 -8 5 -374 13 -760 18 -147 2 -274 8 -285 13 -10 5 -71 11 -134 12 -115 1
-152 5 -169 16 -6 3 -45 7 -88 9 -43 2 -103 11 -133 19 -30 9 -79 18 -108 21
-30 4 -62 10 -71 15 -9 5 -45 12 -79 15 -34 3 -71 10 -82 16 -10 5 -32 10 -49
10 -24 0 -33 -7 -48 -37z m947 -1200 c0 -13 -4 -22 -10 -18 -5 3 -6 13 -3 23
6 15 5 15 -10 3 -9 -7 -25 -10 -34 -6 -17 6 -17 7 0 20 26 19 57 8 57 -22z"/>
<path d="M4527 6416 c-59 -42 -147 -135 -147 -154 0 -34 -22 -93 -36 -99 -8
-3 -24 3 -35 13 -17 15 -22 16 -29 4 -7 -11 -13 -12 -35 -2 -23 11 -34 9 -79
-11 -61 -28 -87 -60 -122 -153 -54 -143 -57 -181 -50 -514 4 -215 -9 -363 -39
-423 -19 -37 -20 -80 -2 -75 6 3 18 17 25 31 16 33 28 34 35 5 8 -27 1 -38
-24 -38 -19 0 -28 -19 -9 -21 6 -1 14 -2 19 -3 5 0 13 -5 18 -10 5 -5 -10 -6
-34 -2 -43 6 -43 6 -43 -24 0 -16 4 -30 9 -30 5 0 13 -9 16 -20 4 -11 11 -18
16 -15 15 10 10 -11 -5 -24 -25 -21 12 -91 46 -91 2 0 5 37 7 83 2 45 5 100 7
122 3 22 6 58 8 80 2 22 17 65 33 96 26 47 29 63 24 100 -10 65 2 330 16 352
4 7 8 64 9 127 3 128 21 230 41 230 16 0 16 5 1 29 -10 17 -6 25 30 60 29 28
54 43 81 47 l39 6 7 -44 c7 -46 2 -157 -10 -218 -4 -19 -9 -120 -12 -225 -4
-184 -4 -191 -29 -227 -26 -38 -31 -65 -36 -232 -1 -51 -7 -83 -16 -93 -10 -9
-11 -17 -4 -26 7 -8 8 -26 2 -52 -5 -22 -10 -71 -10 -110 0 -40 -7 -81 -15
-95 -9 -17 -10 -29 -3 -37 7 -9 7 -31 -1 -70 -15 -77 -16 -81 -23 -89 -4 -3
-3 -16 2 -29 5 -12 7 -33 5 -46 -9 -73 -15 -133 -20 -204 -7 -116 -15 -206
-21 -240 -3 -16 -7 -57 -9 -90 -8 -110 -17 -190 -26 -212 -5 -13 -4 -23 2 -25
7 -2 7 -18 0 -48 -5 -25 -12 -84 -15 -132 -3 -48 -12 -103 -20 -122 -10 -24
-11 -36 -4 -38 8 -3 8 -13 0 -36 -7 -21 -7 -34 -1 -38 6 -3 7 -13 4 -23 -4 -9
-9 -47 -11 -86 -4 -62 -9 -101 -20 -155 -2 -8 -6 -64 -9 -125 -7 -139 -13
-177 -27 -186 -9 -6 -9 -11 1 -23 9 -10 10 -25 4 -48 -5 -18 -10 -71 -12 -118
-1 -47 -6 -98 -11 -115 -11 -40 -21 -138 -26 -258 -2 -54 -7 -103 -10 -109 -4
-6 -8 -39 -10 -72 -5 -141 -16 -281 -24 -300 -4 -12 -8 -56 -9 -98 -2 -75 -5
-101 -17 -160 -3 -14 -1 -29 5 -32 13 -9 2 -37 -23 -59 -16 -14 -17 -20 -7
-26 10 -6 11 -33 7 -112 -3 -60 -1 -121 5 -144 6 -22 16 -62 23 -89 12 -50 36
-76 70 -77 20 0 20 -1 -1 -9 -13 -5 -23 -16 -23 -25 0 -19 14 -19 30 0 12 14
16 13 36 -6 12 -12 20 -27 17 -35 -3 -9 2 -14 16 -14 12 0 21 6 21 14 0 23 56
35 94 20 23 -9 20 -20 -16 -55 -41 -40 -116 -75 -130 -61 -18 18 3 34 38 30
19 -2 34 -1 34 2 0 9 -47 30 -65 30 -8 0 -15 7 -15 15 0 20 -5 19 -43 -7 -18
-13 -33 -23 -34 -23 -1 0 4 -17 10 -37 10 -31 16 -37 49 -42 24 -4 38 -12 38
-21 0 -8 -4 -15 -9 -15 -5 0 -14 -12 -20 -27 -6 -16 -32 -50 -57 -78 -53 -59
-64 -82 -64 -139 0 -53 49 -126 85 -126 12 0 28 -7 35 -15 20 -24 29 -18 51
31 12 30 18 61 15 85 -3 32 0 42 20 58 13 10 39 22 59 25 40 8 57 26 24 26
-16 0 -20 3 -13 10 14 14 54 21 54 10 0 -4 14 -13 30 -19 33 -11 40 -40 16
-61 -8 -6 -38 -18 -66 -25 -59 -15 -98 -44 -78 -56 6 -4 24 -1 38 6 14 7 51
16 80 18 30 3 56 10 58 16 5 14 49 15 57 1 10 -17 29 -11 60 18 17 16 42 36
58 46 25 17 29 17 46 2 9 -9 23 -16 30 -16 6 0 23 -11 36 -24 l24 -24 -19 -40
c-11 -23 -25 -44 -31 -48 -21 -13 15 -24 82 -24 48 0 73 5 90 18 37 26 62 39
94 46 20 5 47 28 80 68 61 74 71 90 52 82 -12 -4 -32 -27 -94 -103 -18 -22
-68 -46 -123 -58 -14 -3 -28 -10 -31 -15 -3 -5 -27 -11 -52 -13 -25 -1 -51 -6
-59 -10 -7 -5 -2 4 11 18 14 15 34 27 46 27 24 0 63 25 53 35 -3 3 -15 1 -26
-6 -11 -7 -27 -9 -38 -5 -18 8 -18 8 1 15 19 8 19 8 0 19 -21 12 -16 14 33 15
12 0 22 4 22 8 0 14 48 41 78 43 26 2 92 35 92 47 0 3 -17 10 -37 16 l-38 10
36 2 c20 0 47 9 59 19 l23 18 -36 -4 c-19 -2 -44 1 -54 7 -16 9 -14 11 12 12
65 3 69 4 76 31 9 33 2 40 -22 25 -14 -9 -29 -7 -71 8 -29 10 -61 18 -71 18
-9 -1 -15 2 -12 8 9 14 56 11 89 -6 46 -24 81 -2 101 63 5 17 2 22 -10 22 -13
0 -15 5 -9 18 9 19 10 70 1 78 -3 3 -13 7 -24 9 -10 2 -19 4 -21 4 -1 1 5 12
14 26 18 27 12 47 -8 27 -16 -16 -41 -15 -64 4 -19 15 -18 15 4 11 15 -4 22 0
22 10 0 19 20 38 48 47 17 6 25 1 42 -26 11 -18 25 -49 32 -68 6 -19 19 -41
29 -48 10 -7 16 -19 13 -27 -3 -7 -1 -22 5 -32 9 -15 10 -12 11 18 0 22 -8 45
-20 59 -11 12 -17 27 -13 33 3 5 -1 15 -9 21 -8 6 -22 27 -31 46 -17 35 -82
110 -96 110 -4 0 -8 -17 -9 -37 -2 -21 -5 -40 -8 -43 -6 -5 -51 43 -71 76 -11
18 -12 18 -43 1 -32 -17 -70 -23 -70 -9 0 4 7 16 15 26 8 11 15 28 15 38 0 10
4 18 9 18 5 0 14 20 20 45 10 40 29 61 32 35 1 -5 3 -14 4 -20 1 -5 3 -19 4
-29 2 -31 30 -33 58 -5 26 26 25 46 -2 24 -21 -17 -45 -6 -38 19 3 12 -2 32
-10 45 -15 23 -15 24 8 30 29 7 34 26 8 27 -13 0 -11 3 6 10 33 13 18 23 -32
21 -31 -2 -38 0 -27 8 8 5 27 10 43 10 15 0 27 5 27 11 0 5 14 15 30 20 18 7
30 18 30 29 0 20 -23 32 -45 24 -8 -3 -22 1 -31 10 -15 16 -17 15 -30 -1 -12
-17 -13 -17 -14 -1 0 33 56 46 82 20 14 -14 67 -16 88 -2 12 7 12 10 1 10 -10
0 -11 7 -6 28 4 15 7 36 7 47 -1 11 5 30 13 42 14 21 13 24 -23 50 -46 34 -62
50 -62 58 0 3 12 -3 28 -13 15 -11 36 -22 47 -24 16 -2 20 3 20 27 0 17 -4 36
-9 43 -7 9 -5 17 5 23 12 8 10 13 -10 29 -18 16 -20 20 -7 20 26 0 38 42 18
59 -13 10 -14 15 -4 18 7 3 20 12 28 21 15 15 15 16 -2 23 -11 3 -27 5 -36 3
-26 -4 -22 3 10 20 15 8 21 16 15 17 -37 5 -75 20 -68 27 3 4 22 5 42 3 29 -2
35 0 30 12 -3 9 -1 18 6 20 13 5 -33 26 -73 34 -29 5 -36 10 -27 20 4 3 24 1
44 -5 39 -12 58 -7 33 8 -21 13 -1 19 83 24 38 3 71 7 74 10 3 3 -11 13 -31
22 -33 16 -37 16 -54 1 -19 -18 -42 -23 -42 -9 0 4 10 12 22 17 28 13 35 35
11 35 -10 0 -40 -8 -68 -18 -27 -10 -56 -18 -62 -16 -7 1 -17 2 -23 3 -5 0
-10 5 -10 10 0 4 10 6 23 4 26 -5 77 12 77 26 0 5 -17 7 -39 4 -25 -4 -41 -1
-46 7 -6 10 7 12 61 7 52 -4 88 -15 141 -41 59 -30 82 -36 135 -36 39 -1 70
-6 82 -15 26 -20 57 -20 50 0 -8 20 10 19 41 -1 13 -9 30 -14 37 -11 7 3 -9
15 -36 27 -38 17 -50 19 -56 9 -7 -10 -14 -10 -38 0 -17 7 -37 10 -44 5 -9 -5
-10 -4 -3 4 6 7 39 14 74 16 35 3 68 9 74 15 6 6 22 11 36 11 15 0 35 7 45 15
10 8 24 11 30 8 6 -4 5 0 -2 9 -11 14 -9 18 17 31 39 19 48 6 28 -36 -49 -103
-54 -124 -48 -232 4 -77 4 -78 -44 -134 -25 -29 -45 -58 -45 -65 0 -7 -10 -22
-23 -34 -21 -19 -27 -20 -55 -10 -36 14 -53 55 -73 178 -5 36 -14 74 -19 86
-6 15 -3 23 11 32 23 14 26 34 4 26 -9 -4 -30 0 -48 7 -37 15 -70 13 -109 -7
-35 -18 -35 -30 -3 -38 30 -8 31 -23 5 -73 -24 -47 -29 -75 -35 -200 -7 -132
-14 -175 -32 -195 -15 -16 -15 -18 0 -18 19 0 24 -8 31 -43 11 -60 34 -62 96
-7 25 22 56 46 69 53 39 19 38 37 -1 32 -18 -3 -41 -2 -50 1 -15 4 -16 9 -7
27 7 12 19 26 28 32 23 14 83 35 102 35 9 0 19 7 23 15 3 9 18 15 36 15 23 0
33 -6 42 -25 14 -31 8 -38 -56 -62 -27 -10 -51 -24 -54 -31 -5 -17 47 -16 91
3 20 8 55 15 77 15 42 0 99 23 101 40 1 6 3 15 4 20 1 6 3 15 4 20 2 18 27 11
51 -15 13 -14 29 -25 37 -25 7 0 21 -9 30 -20 10 -11 24 -20 33 -20 22 0 60
-29 60 -46 0 -18 -17 -18 -52 0 -31 16 -41 11 -28 -14 7 -13 -1 -28 -31 -65
-44 -53 -57 -91 -40 -114 20 -28 28 -55 34 -106 3 -27 10 -63 16 -80 6 -16 12
-62 14 -101 3 -39 7 -76 10 -81 4 -6 9 -35 11 -66 13 -149 57 -348 97 -439 16
-36 29 -72 29 -79 0 -7 -15 -25 -32 -40 l-33 -28 36 -1 c19 0 44 -7 55 -15 19
-14 19 -14 -1 -9 -11 3 -31 1 -45 -5 -25 -10 -25 -10 -2 -10 12 -1 39 -8 60
-16 41 -18 91 -24 233 -29 52 -2 104 -8 115 -14 10 -5 44 -17 74 -26 31 -9 66
-25 78 -36 25 -24 35 -25 52 -5 10 12 10 18 0 29 -11 14 -40 108 -40 134 0 7
13 12 30 12 24 0 30 -4 31 -22 2 -42 -3 -73 -13 -86 -6 -7 -8 -16 -4 -20 12
-12 36 30 36 62 0 58 10 75 49 86 20 5 47 10 60 10 24 0 172 -65 181 -80 3 -4
20 -10 39 -13 l33 -6 -6 51 c-4 28 -14 64 -22 79 -7 15 -14 39 -14 53 0 14 -4
27 -9 30 -5 3 -7 16 -3 28 5 19 2 21 -32 15 -22 -3 -34 -2 -31 4 4 5 -15 9
-44 9 -28 0 -51 5 -51 10 0 6 33 10 80 10 86 0 102 11 48 35 -18 8 -28 15 -23
16 6 1 15 2 20 4 6 1 20 3 33 3 29 2 28 27 -3 57 l-24 25 37 0 37 1 -25 14
c-14 8 -43 14 -64 15 -40 0 -43 11 -4 17 12 2 26 9 30 16 4 6 12 12 18 12 19
0 11 18 -17 36 -15 10 -22 19 -15 19 19 0 14 18 -8 30 -15 8 -26 7 -45 -6 -33
-22 -32 -1 1 25 31 24 44 26 44 7 0 -15 27 -29 40 -21 4 3 4 21 0 40 -4 19 -6
35 -3 35 3 0 0 7 -7 15 -7 8 -21 15 -31 15 -10 0 -20 4 -24 9 -3 6 4 8 16 6
12 -3 29 -1 37 4 13 7 12 10 -7 20 -12 7 -25 10 -29 7 -4 -2 -12 7 -19 20 -12
27 -10 29 17 14 13 -7 21 -6 30 5 10 12 9 15 -4 15 -10 0 -15 4 -11 9 3 5 -11
15 -30 21 -39 13 -39 30 0 25 22 -2 25 1 25 31 0 30 -3 34 -27 34 -25 0 -25 1
-10 18 21 23 23 72 3 72 -7 0 -19 -7 -26 -15 -7 -8 -19 -15 -28 -15 -11 0 -6
9 14 28 16 15 36 36 44 46 14 18 13 19 -2 13 -21 -7 -24 3 -6 21 9 9 7 17 -10
35 -23 25 -24 25 -85 30 -21 1 -42 9 -47 17 -8 13 -12 12 -24 -5 -13 -17 -15
-18 -16 -3 0 30 54 46 79 24 20 -17 66 -25 83 -15 9 6 5 16 -17 39 -26 27 -28
33 -14 40 14 8 14 15 5 45 -8 27 -18 38 -40 43 -43 11 -45 32 -3 29 l34 -3
-13 33 c-8 18 -14 41 -14 52 0 27 -24 33 -68 17 -20 -7 -46 -17 -57 -21 -16
-6 -16 -3 5 15 l25 22 -40 -6 c-32 -4 -36 -3 -21 6 10 5 45 11 77 12 33 2 61
5 64 8 10 10 -6 35 -28 46 -22 10 -22 10 6 17 32 8 31 6 12 53 -9 20 -13 47
-10 59 4 16 1 23 -9 23 -26 0 -28 20 -4 29 20 8 21 10 6 16 -10 4 -18 14 -18
22 0 10 -7 14 -20 10 -11 -3 -20 -2 -20 2 0 3 9 12 20 19 33 20 24 34 -20 30
-22 -2 -40 0 -40 4 0 5 10 8 23 8 31 0 38 9 27 31 -6 11 -6 27 -1 41 14 36 -4
60 -37 51 l-27 -6 33 37 c39 44 41 66 7 66 -30 0 -33 15 -5 23 10 3 22 17 26
32 5 22 2 31 -17 46 l-24 19 23 0 c12 0 22 5 22 10 0 6 -7 10 -15 10 -8 0 -12
6 -9 14 3 8 -5 23 -17 35 l-22 20 25 -4 c25 -5 25 -4 14 28 -24 67 -43 85 -89
82 -23 -1 -51 -5 -62 -8 -20 -7 -54 7 -44 18 3 3 43 7 88 9 46 3 86 7 89 11
11 10 -65 75 -88 75 -11 0 -20 5 -20 11 0 7 14 10 36 7 32 -4 34 -3 18 9 -10
7 -22 13 -27 13 -5 0 -6 8 -1 18 4 9 8 31 9 47 2 33 30 43 30 11 0 -11 6 -21
13 -24 18 -6 4 48 -18 69 -30 29 -58 32 -94 10 -18 -12 -44 -21 -58 -21 -13 0
-29 -5 -36 -12 -13 -13 -75 -37 -117 -44 -16 -3 -34 -9 -40 -14 -5 -4 -30 -10
-54 -14 -24 -3 -58 -15 -76 -26 -17 -11 -34 -17 -37 -15 -3 3 -11 -1 -18 -10
-7 -8 -23 -15 -37 -15 -13 0 -37 -7 -53 -15 -18 -9 -40 -13 -55 -9 -22 5 -25
3 -25 -20 0 -14 -4 -26 -10 -26 -5 0 -10 -15 -10 -32 0 -38 -8 -52 -33 -61
-14 -5 -20 -2 -24 13 -4 15 -11 19 -24 15 -10 -4 -31 -8 -46 -11 -23 -4 -25
-3 -13 11 7 8 18 15 25 15 19 0 55 48 49 65 -3 8 -14 11 -27 7 -19 -5 -18 -2
8 21 27 23 28 26 11 33 -10 4 -34 1 -53 -5 -19 -7 -37 -11 -39 -8 -10 9 27 29
65 34 41 6 45 19 9 32 -20 7 -20 8 -2 26 10 10 14 20 9 22 -28 9 -75 44 -70
52 3 5 36 12 73 16 103 10 135 27 136 75 1 8 7 15 14 14 38 -3 41 -5 35 -21
-3 -10 -15 -28 -26 -40 -30 -33 -3 -28 36 7 35 31 69 40 64 18 -1 -8 13 -13
40 -14 79 -3 97 -24 38 -44 -19 -6 -35 -17 -35 -24 0 -23 12 -25 29 -5 9 11
23 21 33 22 9 2 22 8 29 13 8 6 36 19 63 30 45 18 113 71 102 81 -6 7 -49 -19
-64 -39 -7 -10 -29 -22 -50 -28 -42 -11 -68 -13 -59 -3 4 3 -1 12 -11 20 -15
13 -13 14 19 8 45 -7 89 11 89 37 0 10 7 18 15 18 8 0 15 7 15 16 0 8 -5 12
-11 9 -6 -4 -31 -2 -55 5 -28 8 -41 16 -33 21 7 4 18 5 26 2 22 -9 63 6 63 23
0 11 6 13 19 9 14 -4 23 0 31 16 10 18 18 20 59 16 60 -6 88 7 48 22 -16 6
-33 11 -38 11 -5 0 -9 5 -9 11 0 16 68 4 90 -16 15 -14 21 -14 39 -3 28 17 26
26 -5 34 l-27 7 26 13 c19 10 28 26 36 64 14 66 14 65 -10 67 -11 1 -27 7 -35
14 -16 13 -19 39 -4 39 6 0 10 -7 10 -15 0 -8 7 -15 15 -15 17 0 28 34 22 70
-3 14 -1 32 4 41 6 12 2 19 -17 28 -33 15 -37 14 -30 -5 3 -8 2 -12 -4 -9 -13
8 -13 35 0 36 6 1 15 2 20 3 16 2 29 27 23 43 -3 7 -24 22 -47 32 l-41 19 48
12 c49 13 66 40 24 40 -36 0 -41 12 -10 25 l28 12 -40 17 c-24 10 -50 15 -65
11 -42 -11 -73 -11 -77 0 -2 6 9 11 24 12 16 1 51 5 78 10 44 7 50 11 50 33 0
17 -7 26 -22 30 -16 3 -20 9 -14 19 5 8 16 11 25 8 13 -5 14 0 9 26 -3 18 -11
35 -16 39 -7 4 -6 12 4 24 13 16 11 17 -20 12 -19 -3 -46 1 -60 8 -26 14 -25
14 17 14 43 0 60 21 26 34 -14 5 -14 7 0 22 34 34 6 41 -72 18 -9 -3 -6 3 8
13 51 37 59 50 51 80 -6 20 -13 27 -27 25 -15 -2 -13 3 10 24 l29 26 -56 -4
c-77 -6 -55 13 26 21 4 1 4 9 -1 19 -5 9 -13 35 -16 57 -11 61 -29 83 -63 77
-25 -5 -27 -4 -14 11 7 9 17 14 22 12 4 -3 13 4 19 15 9 16 8 22 -5 26 -11 5
-13 10 -5 19 13 16 -16 43 -58 51 -18 4 -32 10 -32 15 0 13 48 11 56 -2 5 -8
10 -6 16 5 11 19 3 36 -18 36 -14 0 -13 2 0 16 21 21 20 33 -4 59 -18 19 -19
24 -6 34 18 15 10 41 -12 41 -12 0 -13 3 -4 12 16 16 15 45 0 51 -7 2 -26 0
-43 -4 l-30 -8 33 28 c37 31 38 38 15 63 -11 13 -12 18 -3 18 27 0 -12 29 -49
37 -20 4 -39 8 -43 9 -5 1 -15 2 -23 3 -8 0 -15 6 -15 12 0 9 21 10 72 5 l72
-6 -20 21 c-30 34 -53 42 -82 31 -40 -15 -117 -23 -104 -10 5 5 25 11 43 12
19 2 44 8 56 14 12 7 33 12 47 12 31 0 33 14 5 34 -12 8 -18 19 -14 26 4 6 8
23 10 37 2 19 -5 30 -31 45 -41 24 -42 27 -6 25 23 -2 27 2 27 23 0 17 -7 26
-25 30 l-25 6 23 8 c24 8 29 21 12 31 -8 5 -8 11 0 20 8 9 8 15 0 20 -7 4 -7
12 0 25 8 15 6 21 -10 30 -23 12 -18 32 5 23 22 -8 18 15 -4 26 -23 13 -70 16
-92 7 -10 -4 -20 -3 -23 2 -7 12 47 25 92 22 35 -2 43 13 15 29 -16 9 -16 11
2 31 11 12 20 23 20 25 0 11 -41 45 -54 45 -9 1 -27 8 -41 16 -14 8 -17 13 -8
10 44 -13 86 -17 92 -8 3 6 1 23 -5 38 -7 21 -7 30 1 32 6 2 -4 17 -22 33 -18
16 -28 29 -22 29 17 0 64 47 64 64 0 9 -11 18 -25 22 -26 6 -26 7 -5 21 28 20
25 31 -7 26 -27 -4 -27 -4 -9 11 11 9 24 16 29 16 6 0 6 14 2 33 -4 17 -7 44
-7 60 1 23 -5 30 -41 44 l-41 17 32 8 c40 11 42 28 3 28 -30 0 -81 33 -69 45
4 4 14 0 23 -9 18 -17 45 -22 45 -7 0 5 -7 14 -15 21 -8 7 -13 16 -10 20 2 4
-7 5 -20 2 -14 -2 -25 0 -25 6 0 12 39 42 55 42 19 0 98 -76 99 -96 1 -10 5
-25 10 -32 4 -6 9 -20 11 -29 2 -10 11 -36 19 -58 l15 -40 1 33 c0 18 -4 41
-9 50 -5 9 -12 35 -15 57 -4 26 -17 50 -36 68 -17 15 -30 37 -30 48 0 14 -7
19 -26 19 -21 0 -24 3 -15 14 16 19 -11 39 -53 40 -26 1 -32 5 -28 18 3 12 -7
22 -34 34 -33 15 -73 18 -243 20 -113 1 -219 -3 -235 -8 -17 -5 -60 -12 -96
-14 -36 -3 -76 -7 -90 -10 -68 -16 -128 -20 -260 -18 -79 2 -153 7 -164 12
-129 61 -157 63 -219 18z m624 -1183 c11 -13 11 -17 1 -20 -6 -3 -9 -9 -6 -15
6 -9 9 -117 15 -448 1 -74 6 -148 10 -165 7 -26 11 -74 23 -240 2 -22 6 -71
10 -110 4 -38 9 -92 11 -120 2 -27 9 -75 14 -105 6 -30 13 -86 16 -125 3 -38
10 -87 16 -108 8 -29 7 -42 -2 -54 -10 -11 -10 -16 -1 -22 6 -4 14 -42 17 -85
3 -43 9 -95 15 -115 5 -20 12 -63 14 -96 7 -74 17 -153 23 -180 10 -45 9 -107
-2 -122 -24 -32 -171 -65 -202 -45 -18 11 -33 59 -33 103 0 62 -36 120 -55 89
-13 -22 -6 -132 9 -149 20 -22 20 -31 0 -31 -8 0 -12 -4 -9 -10 3 -5 23 -10
43 -10 l37 -1 -37 -20 c-21 -11 -38 -24 -38 -29 0 -6 -7 -10 -16 -10 -12 0
-14 3 -6 13 17 20 -3 40 -37 39 -17 0 -31 4 -31 9 0 5 14 9 30 9 44 0 36 12
-25 40 -30 14 -55 31 -55 39 0 11 5 10 24 -3 27 -17 48 -4 27 17 -6 6 -11 19
-11 29 0 21 -11 23 -29 6 -10 -11 -12 -9 -9 7 2 11 13 24 25 30 27 11 38 34
24 48 -7 7 -7 15 1 24 18 22 1 27 -27 9 -25 -17 -28 -16 -70 9 -24 14 -47 30
-50 36 -13 19 2 19 27 0 58 -46 114 -27 122 41 4 30 0 41 -15 52 -22 15 -11
30 14 20 10 -4 16 4 20 28 2 18 1 38 -4 43 -5 7 0 16 12 24 12 7 19 14 16 17
-7 7 -61 -19 -70 -33 -9 -14 -47 -18 -47 -5 0 4 23 21 50 37 35 21 48 35 44
47 -3 9 0 19 6 23 17 11 11 24 -15 31 -30 7 -33 24 -6 24 11 0 22 4 26 9 3 5
-9 9 -26 9 -17 -1 -35 5 -40 13 -4 8 -14 14 -20 14 -7 0 -14 6 -16 13 -6 17 7
15 53 -7 38 -19 60 -19 49 -1 -3 5 -1 18 5 29 8 16 5 25 -14 48 l-24 28 -52
-19 c-61 -22 -102 -26 -107 -10 -2 7 5 10 19 7 27 -5 78 12 78 26 0 6 -16 8
-39 5 -24 -3 -42 -1 -46 6 -8 14 90 12 143 -2 27 -8 38 -6 53 8 24 22 16 34
-26 34 -39 0 -65 8 -65 21 0 5 25 9 55 9 52 0 71 11 43 24 -10 5 -10 7 0 12
21 10 13 25 -11 19 -28 -7 -80 10 -57 19 8 3 29 6 45 8 35 3 46 36 21 61 -14
13 -14 16 0 28 10 8 14 24 11 42 -2 18 1 31 10 34 24 9 14 20 -14 15 -25 -4
-26 -3 -10 9 27 21 54 184 30 184 -6 0 -15 3 -19 8 -4 4 0 7 9 7 16 0 34 37
23 48 -4 3 -21 6 -39 7 -18 0 -45 9 -62 18 l-30 18 35 -6 c49 -8 90 -6 109 5
13 8 12 10 -9 11 -14 1 -29 1 -35 0 -5 -1 2 8 16 21 37 32 41 53 17 74 l-20
19 23 5 c26 6 38 30 15 30 -20 0 -21 16 -1 24 34 13 15 29 -46 40 -15 2 -35 9
-45 14 -26 15 -58 25 -66 24 -5 -1 -8 4 -8 12 0 9 7 12 20 9 11 -3 17 -9 14
-14 -3 -5 5 -9 18 -9 13 0 45 -7 72 -15 55 -17 96 -20 57 -4 -22 9 -23 11 -7
27 21 24 21 52 0 52 -13 0 -14 3 -4 15 7 9 9 26 5 45 -4 19 -3 30 4 30 6 0 11
9 11 21 0 13 4 18 12 13 7 -4 8 -3 4 4 -4 7 -14 12 -22 12 -20 0 -17 23 5 37
26 16 33 72 11 85 -16 10 -16 12 2 30 16 16 19 28 14 62 -10 66 7 94 35 59z
m-140 -965 c10 -18 9 -20 -5 -15 -8 3 -18 2 -21 -3 -4 -6 -14 -10 -23 -10 -14
0 -13 2 3 13 10 8 15 19 11 25 -4 7 -1 12 8 12 8 0 20 -10 27 -22z m-363
-2981 c17 -11 15 -72 -4 -115 -38 -86 -60 -125 -75 -135 -13 -8 -15 -14 -6
-28 8 -14 5 -25 -16 -53 -56 -72 -99 -94 -177 -87 -23 2 -23 3 10 17 42 18 44
20 35 34 -5 8 -10 8 -14 2 -3 -5 -17 -13 -31 -17 -22 -7 -23 -6 -12 8 8 9 11
20 8 25 -10 17 19 42 52 44 17 1 32 6 32 10 0 4 -15 8 -32 8 -25 1 -29 3 -17
10 8 5 28 11 43 14 42 8 43 15 7 27 l-33 12 48 28 c37 21 44 29 31 33 -9 4
-24 8 -32 11 -8 2 -15 9 -15 14 0 7 9 7 25 -1 19 -8 28 -8 40 2 22 18 18 29
-9 26 -14 -2 -30 1 -38 5 -10 6 -8 9 7 10 43 2 59 9 89 39 26 25 28 32 16 40
-12 7 -10 11 10 18 28 10 39 10 58 -1z m1759 -687 c11 -1 7 -6 -11 -13 l-30
-13 22 -16 c13 -8 22 -22 20 -29 -2 -11 8 -13 42 -12 38 2 42 1 26 -9 -11 -6
-41 -10 -68 -9 -27 1 -48 -3 -48 -9 0 -5 12 -10 26 -10 14 0 23 -4 19 -9 -7
-12 -110 -5 -146 9 -21 9 -33 9 -51 -1 -23 -13 -23 -13 12 -20 19 -4 49 -10
65 -14 55 -13 60 -13 83 -14 13 -1 21 -5 17 -10 -5 -10 -120 -5 -137 5 -5 3
-17 -5 -27 -17 -19 -24 -63 -28 -157 -13 -26 3 -44 2 -48 -5 -4 -6 -15 -11
-26 -11 -18 0 -34 -23 -23 -34 4 -3 14 -6 24 -6 10 0 21 -5 25 -12 4 -6 3 -8
-3 -5 -6 4 -46 7 -89 8 l-79 2 40 14 c22 7 55 27 74 43 18 17 38 30 43 30 6 0
23 9 39 21 16 11 29 15 29 9 0 -6 5 -8 10 -5 6 3 10 21 10 40 l0 33 45 -13
c31 -10 54 -11 77 -4 18 5 48 6 67 3 26 -5 33 -4 29 7 -3 8 -18 15 -34 15 -44
3 -46 3 -38 15 3 6 -5 3 -20 -6 -17 -11 -35 -15 -51 -11 -33 8 -23 26 11 20
14 -3 32 0 40 7 18 15 90 6 113 -15 21 -19 54 -21 49 -3 -3 6 -14 13 -26 15
-12 2 -22 8 -22 14 0 5 7 7 16 4 15 -6 15 -4 2 16 -9 13 -31 28 -50 33 -19 6
-33 15 -31 22 3 8 23 4 63 -13 33 -13 68 -24 77 -24z"/>
<path d="M3122 5750 c0 -14 2 -19 5 -12 2 6 2 18 0 25 -3 6 -5 1 -5 -13z"/>
<path d="M1831 5101 c-2 -176 -3 -191 -17 -240 -5 -18 -4 -22 7 -19 8 3 22 1
32 -4 22 -11 68 -84 78 -123 l7 -30 1 30 c1 37 -28 98 -66 137 l-27 28 0 200
c0 110 -3 200 -7 200 -3 0 -7 -81 -8 -179z"/>
<path d="M3893 3858 c-29 -32 -53 -67 -53 -78 0 -10 -5 -20 -10 -22 -6 -2 -13
-21 -15 -43 -3 -22 -19 -82 -36 -134 -25 -73 -31 -109 -29 -160 7 -219 5 -242
-41 -432 l-30 -127 30 -61 c36 -70 37 -83 23 -171 -6 -36 -14 -96 -17 -135 -7
-90 -14 -155 -19 -180 -2 -11 -7 -40 -11 -65 -4 -25 -18 -85 -31 -135 -34
-131 -46 -211 -46 -290 1 -95 11 -182 26 -215 11 -25 13 -202 4 -240 -13 -47
-16 -70 -17 -103 -1 -20 -15 -42 -46 -73 -37 -35 -45 -50 -46 -81 -2 -80 -7
-121 -16 -138 -7 -12 -6 -26 3 -44 8 -14 14 -38 14 -53 0 -14 4 -28 9 -30 5
-2 12 -21 15 -43 4 -22 12 -45 19 -52 17 -16 75 -28 132 -27 110 3 125 4 125
14 0 6 -6 10 -12 10 -7 0 -19 4 -27 9 -12 8 -12 12 -2 25 16 19 6 36 -20 36
-10 0 -19 5 -19 10 0 6 -11 15 -24 20 -38 14 -75 151 -43 163 8 3 7 7 -4 11
-13 6 -14 16 -8 56 4 28 10 54 14 59 3 5 0 13 -6 16 -5 4 -8 14 -4 24 9 22 15
72 19 157 2 40 7 78 11 84 8 12 10 44 16 210 1 36 6 76 11 89 4 12 11 66 13
120 7 127 15 212 20 221 5 8 13 86 20 199 3 40 9 79 14 85 6 7 6 17 1 26 -6 9
-5 17 3 22 9 5 9 10 0 19 -9 9 -9 18 -2 31 7 13 7 23 0 32 -7 8 -7 16 -1 22 5
5 12 64 15 131 3 67 9 132 14 145 4 13 9 50 10 83 2 71 4 86 14 102 4 7 5 23
1 36 -3 14 -1 28 6 32 7 4 9 22 4 50 -3 24 -3 49 2 56 8 14 9 20 19 193 3 61
8 112 10 115 1 4 6 44 9 91 3 47 10 101 16 120 7 23 7 36 0 38 -12 4 -14 32
-2 32 6 0 34 191 28 196 0 1 -25 -25 -53 -58z"/>
<path d="M2585 3579 c-9 -14 -2 -20 14 -10 8 6 9 11 3 15 -6 3 -14 1 -17 -5z"/>
<path d="M5432 1514 c-12 -8 -22 -12 -22 -9 0 14 -99 -51 -143 -93 -79 -77
-102 -146 -72 -219 8 -19 15 -53 15 -75 0 -38 32 -113 55 -130 18 -13 28 -9
15 7 -17 21 -4 35 35 35 34 0 45 -13 45 -51 0 -23 -54 -59 -88 -59 -17 0 -22
-5 -20 -17 2 -10 9 -17 16 -16 6 2 29 7 51 12 30 7 41 5 45 -5 5 -13 -47 -34
-87 -34 -23 0 -33 -26 -17 -45 6 -7 14 -53 16 -101 3 -48 9 -95 14 -103 4 -9
11 -39 15 -68 8 -65 40 -154 61 -170 9 -6 22 -9 30 -6 18 7 104 -17 104 -28 0
-5 -10 -9 -22 -9 -17 0 -19 -3 -10 -12 18 -18 15 -25 -18 -37 -20 -6 -28 -7
-24 0 7 12 -11 36 -38 50 -16 9 -16 6 3 -31 12 -23 32 -46 45 -51 26 -9 31
-24 13 -35 -8 -4 -7 -9 2 -15 23 -15 70 -10 103 10 20 12 59 21 109 25 43 3
87 11 97 16 10 6 34 10 54 10 19 0 38 4 41 10 7 11 -87 6 -106 -6 -6 -3 -53
-8 -103 -11 -82 -3 -95 -2 -117 16 -14 12 -18 20 -11 21 7 0 20 -7 28 -15 17
-17 44 -20 44 -5 0 6 7 10 15 10 9 0 12 6 9 15 -5 13 -2 14 21 5 33 -13 75
-13 75 -1 0 12 -50 28 -110 37 -25 4 -51 12 -59 17 -18 15 -71 132 -71 158 0
11 -4 28 -10 38 -9 18 -13 36 -25 121 -16 106 -28 206 -30 245 0 17 -6 48 -13
70 -6 22 -14 56 -17 75 -2 19 -10 62 -15 95 -18 98 -17 118 3 173 17 49 18 55
3 71 -22 25 -21 28 22 46 20 9 55 25 77 35 22 10 50 21 63 25 12 4 20 11 17
16 -10 15 -89 10 -113 -7z"/>
</g>
</svg>
